ModelForces
version=1
nRows=4
nColumns=119
inDegrees=no

This file contains the forces exerted on a model during a simulation.

A force is a generalized force, meaning that it can be either a force (N) or a torque (Nm).

Units are S.I. units (second, meters, Newtons, ...)
Angles are in degrees.

endheader
time	semimem_r	semiten_r	bifemlh_r	bifemsh_r	sar_r	grac_r	rect_fem_r	vas_med_r	vas_int_r	vas_lat_r	med_gas_r	lat_gas_r	femur_lat_meniscii_l.femur_lat_l.force.X	femur_lat_meniscii_l.femur_lat_l.force.Y	femur_lat_meniscii_l.femur_lat_l.force.Z	femur_lat_meniscii_l.femur_lat_l.torque.X	femur_lat_meniscii_l.femur_lat_l.torque.Y	femur_lat_meniscii_l.femur_lat_l.torque.Z	femur_lat_meniscii_l.meniscus_lat_l.force.X	femur_lat_meniscii_l.meniscus_lat_l.force.Y	femur_lat_meniscii_l.meniscus_lat_l.force.Z	femur_lat_meniscii_l.meniscus_lat_l.torque.X	femur_lat_meniscii_l.meniscus_lat_l.torque.Y	femur_lat_meniscii_l.meniscus_lat_l.torque.Z	femur_med_meniscii_l.femur_med_l.force.X	femur_med_meniscii_l.femur_med_l.force.Y	femur_med_meniscii_l.femur_med_l.force.Z	femur_med_meniscii_l.femur_med_l.torque.X	femur_med_meniscii_l.femur_med_l.torque.Y	femur_med_meniscii_l.femur_med_l.torque.Z	femur_med_meniscii_l.meniscus_med_l.force.X	femur_med_meniscii_l.meniscus_med_l.force.Y	femur_med_meniscii_l.meniscus_med_l.force.Z	femur_med_meniscii_l.meniscus_med_l.torque.X	femur_med_meniscii_l.meniscus_med_l.torque.Y	femur_med_meniscii_l.meniscus_med_l.torque.Z	femur_lat_meniscii_r.femur_lat_r.force.X	femur_lat_meniscii_r.femur_lat_r.force.Y	femur_lat_meniscii_r.femur_lat_r.force.Z	femur_lat_meniscii_r.femur_lat_r.torque.X	femur_lat_meniscii_r.femur_lat_r.torque.Y	femur_lat_meniscii_r.femur_lat_r.torque.Z	femur_lat_meniscii_r.meniscus_lat_r.force.X	femur_lat_meniscii_r.meniscus_lat_r.force.Y	femur_lat_meniscii_r.meniscus_lat_r.force.Z	femur_lat_meniscii_r.meniscus_lat_r.torque.X	femur_lat_meniscii_r.meniscus_lat_r.torque.Y	femur_lat_meniscii_r.meniscus_lat_r.torque.Z	femur_med_meniscii_r.femur_med_r.force.X	femur_med_meniscii_r.femur_med_r.force.Y	femur_med_meniscii_r.femur_med_r.force.Z	femur_med_meniscii_r.femur_med_r.torque.X	femur_med_meniscii_r.femur_med_r.torque.Y	femur_med_meniscii_r.femur_med_r.torque.Z	femur_med_meniscii_r.meniscus_med_r.force.X	femur_med_meniscii_r.meniscus_med_r.force.Y	femur_med_meniscii_r.meniscus_med_r.force.Z	femur_med_meniscii_r.meniscus_med_r.torque.X	femur_med_meniscii_r.meniscus_med_r.torque.Y	femur_med_meniscii_r.meniscus_med_r.torque.Z	femur_med_tibia_l.tibia_upper_l.force.X	femur_med_tibia_l.tibia_upper_l.force.Y	femur_med_tibia_l.tibia_upper_l.force.Z	femur_med_tibia_l.tibia_upper_l.torque.X	femur_med_tibia_l.tibia_upper_l.torque.Y	femur_med_tibia_l.tibia_upper_l.torque.Z	femur_med_tibia_l.femur_med_l.force.X	femur_med_tibia_l.femur_med_l.force.Y	femur_med_tibia_l.femur_med_l.force.Z	femur_med_tibia_l.femur_med_l.torque.X	femur_med_tibia_l.femur_med_l.torque.Y	femur_med_tibia_l.femur_med_l.torque.Z	femur_lat_tibia_l.tibia_upper_l.force.X	femur_lat_tibia_l.tibia_upper_l.force.Y	femur_lat_tibia_l.tibia_upper_l.force.Z	femur_lat_tibia_l.tibia_upper_l.torque.X	femur_lat_tibia_l.tibia_upper_l.torque.Y	femur_lat_tibia_l.tibia_upper_l.torque.Z	femur_lat_tibia_l.femur_lat_l.force.X	femur_lat_tibia_l.femur_lat_l.force.Y	femur_lat_tibia_l.femur_lat_l.force.Z	femur_lat_tibia_l.femur_lat_l.torque.X	femur_lat_tibia_l.femur_lat_l.torque.Y	femur_lat_tibia_l.femur_lat_l.torque.Z	femur_med_tibia_r.tibia_upper_r.force.X	femur_med_tibia_r.tibia_upper_r.force.Y	femur_med_tibia_r.tibia_upper_r.force.Z	femur_med_tibia_r.tibia_upper_r.torque.X	femur_med_tibia_r.tibia_upper_r.torque.Y	femur_med_tibia_r.tibia_upper_r.torque.Z	femur_med_tibia_r.femur_med_r.force.X	femur_med_tibia_r.femur_med_r.force.Y	femur_med_tibia_r.femur_med_r.force.Z	femur_med_tibia_r.femur_med_r.torque.X	femur_med_tibia_r.femur_med_r.torque.Y	femur_med_tibia_r.femur_med_r.torque.Z	femur_lat_tibia_r.tibia_upper_r.force.X	femur_lat_tibia_r.tibia_upper_r.force.Y	femur_lat_tibia_r.tibia_upper_r.force.Z	femur_lat_tibia_r.tibia_upper_r.torque.X	femur_lat_tibia_r.tibia_upper_r.torque.Y	femur_lat_tibia_r.tibia_upper_r.torque.Z	femur_lat_tibia_r.femur_lat_r.force.X	femur_lat_tibia_r.femur_lat_r.force.Y	femur_lat_tibia_r.femur_lat_r.force.Z	femur_lat_tibia_r.femur_lat_r.torque.X	femur_lat_tibia_r.femur_lat_r.torque.Y	femur_lat_tibia_r.femur_lat_r.torque.Z	aACL_R	pACL_R	aPCL_R	pPCL_R	aMCL_R	aLCL_R	aPCL_L	pPCL_L	aMCL_L	aLCL_L
      0.12109931	     64.75227894	     92.17540370	     77.93266999	    161.96848261	     76.93997167	     59.54475275	     35.76725326	      7.16779470	      8.93038402	     37.81752072	      0.00000000	      7.36649760	    104.15176922	    284.85667317	     13.24555367	     -0.18285396	     -1.42241350	     24.75674182	   -104.15176922	   -284.85667317	    -13.24555367	     -8.13908946	      3.63613043	     -6.92788414	     -6.12144654	     28.41471721	      7.10580390	     -3.53570341	      0.25354533	     -4.05175197	      6.12144654	    -28.41471721	     -7.10580390	      0.50324764	      0.22040779	     -0.45586748	     47.86562690	    106.89398063	     -4.33196298	     -0.91072954	      1.19012862	     18.86482478	    -47.86562690	   -106.89398063	      4.33196298	      3.03934171	     -1.35957670	      0.47383925	    156.26214247	    305.76081771	     17.12242237	     -0.13159935	     -3.29804129	     61.79474210	   -156.26214247	   -305.76081771	    -17.12242237	     -5.05959496	      2.43928997	      0.91599055	      0.00000000	      0.00000000	      0.00000000	      0.00000000	      0.00000000	      0.00000000	      0.00000000	      0.00000000	      0.00000000	      0.00000000	      0.00000000	      0.00000000	      0.00000000	      0.00000000	      0.00000000	      0.00000000	      0.00000000	      0.00000000	      0.00000000	      0.00000000	      0.00000000	      0.00000000	      0.00000000	      0.00000000	     14.00479423	   -215.87268958	     51.36345739	     -4.44403322	      0.46557293	      3.17121937	    -14.00479423	    215.87268958	    -51.36345739	     25.02994749	      0.09840529	     -6.41387487	      0.00000000	      0.00000000	      0.00000000	      0.00000000	      0.00000000	      0.00000000	      0.00000000	      0.00000000	      0.00000000	      0.00000000	      0.00000000	      0.00000000	      0.00000000	      0.00000000	    196.91009930	     42.59989681	      0.00000000	      0.00000000	     60.81966687	      0.00000000	    108.27616960	    215.03544662
      0.12228605	     59.36750999	     91.79586038	     77.19381736	    161.23933722	     76.82216322	     59.37068542	     34.74754825	     21.85800561	     22.98156282	     21.19451984	      0.00000000	      4.95781048	    105.66052368	    286.30765847	     13.74259814	     -0.37222619	     -1.39344808	     24.90688769	   -105.66052368	   -286.30765847	    -13.74259814	     -8.15885914	      3.68080955	     -6.96924353	     -5.68982547	     28.65901447	      7.02163394	     -3.50410450	      0.26639621	     -3.91791134	      5.68982547	    -28.65901447	     -7.02163394	      0.50173382	      0.21411170	     -0.47620102	     47.61286804	    107.01469060	     -3.08076145	     -1.42591255	      1.19015757	     18.73417824	    -47.61286804	   -107.01469060	      3.08076145	      3.07465626	     -1.36916550	      0.52889638	    158.08662684	    304.88149741	     18.85332729	     -0.85963772	     -3.31850275	     62.51122095	   -158.08662684	   -304.88149741	    -18.85332729	     -5.00350999	      2.43463689	      0.94493039	      0.00000000	      0.00000000	      0.00000000	      0.00000000	      0.00000000	      0.00000000	      0.00000000	      0.00000000	      0.00000000	      0.00000000	      0.00000000	      0.00000000	      0.00000000	      0.00000000	      0.00000000	      0.00000000	      0.00000000	      0.00000000	      0.00000000	      0.00000000	      0.00000000	      0.00000000	      0.00000000	      0.00000000	     12.31262198	   -203.39031970	     47.06796311	     -4.13070153	      0.44657034	      3.01330172	    -12.31262198	    203.39031970	    -47.06796311	     23.01586484	      0.07621535	     -5.69445295	      0.00000000	      0.00000000	      0.00000000	      0.00000000	      0.00000000	      0.00000000	      0.00000000	      0.00000000	      0.00000000	      0.00000000	      0.00000000	      0.00000000	      0.00000000	      0.00000000	    204.11155089	     43.26650475	      0.00000000	      0.00000000	     61.58253540	      0.00000000	    108.41322300	    216.62163319
      0.12347279	     59.31174950	     91.14344215	     76.24173340	    159.69665012	     76.45806842	     58.96890506	     35.27779171	     31.22555168	     32.41356824	     37.06662948	      0.00000000	      1.13577502	    106.60810947	    287.51145894	     14.19957606	     -0.54716419	     -1.35424985	     24.83122285	   -106.60810947	   -287.51145894	    -14.19957606	     -8.17286843	      3.70613054	     -6.98325726	     -5.26487569	     28.89434462	      6.92214017	     -3.46590880	      0.27806752	     -3.78715127	      5.26487569	    -28.89434462	     -6.92214017	      0.49973635	      0.20756489	     -0.49599795	     47.26227128	    109.32960254	     -2.31711601	     -1.79709792	      1.18489368	     18.54390136	    -47.26227128	   -109.32960254	      2.31711601	      3.16187768	     -1.36855600	      0.62771644	    158.19043485	    305.07000617	     19.75650848	     -1.22133363	     -3.31490408	     62.50851564	   -158.19043485	   -305.07000617	    -19.75650848	     -4.99266380	      2.42142215	      1.04368015	      0.00000000	      0.00000000	      0.00000000	      0.00000000	      0.00000000	      0.00000000	      0.00000000	      0.00000000	      0.00000000	      0.00000000	      0.00000000	      0.00000000	      0.00000000	      0.00000000	      0.00000000	      0.00000000	      0.00000000	      0.00000000	      0.00000000	      0.00000000	      0.00000000	      0.00000000	      0.00000000	      0.00000000	     12.49113519	   -213.77648999	     47.07682501	     -4.24471441	      0.46037272	      3.21969351	    -12.49113519	    213.77648999	    -47.07682501	     23.17466579	      0.07135151	     -5.82790767	      0.00000000	      0.00000000	      0.00000000	      0.00000000	      0.00000000	      0.00000000	      0.00000000	      0.00000000	      0.00000000	      0.00000000	      0.00000000	      0.00000000	      0.00000000	      0.00000000	    211.98008295	     44.56129533	      0.00000000	      0.00000000	     62.22741651	      0.00000000	    108.45504240	    218.19369458
      0.12450310	     59.04927311	     90.44068586	     75.28265467	    158.22432057	     76.11720982	     58.57645520	     34.68882305	      0.00000000	      0.00000000	     30.95222657	      0.00000000	      0.00000000	    107.36703264	    288.37192114	     14.55061712	     -0.68200271	     -1.32044625	     24.74758305	   -107.36703264	   -288.37192114	    -14.55061712	     -8.18083905	      3.72426270	     -6.98999579	     -4.88910133	     29.09303670	      6.83929287	     -3.43415089	      0.28831906	     -3.67105164	      4.88910133	    -29.09303670	     -6.83929287	      0.49827292	      0.20197168	     -0.51327736	     46.97578663	    112.81363496	     -1.75884931	     -2.11134054	      1.18051945	     18.37176885	    -46.97578663	   -112.81363496	      1.75884931	      3.27593783	     -1.36745458	      0.74245696	    155.40663017	    305.28107249	     20.59930212	     -1.53230452	     -3.24073693	     61.31425644	   -155.40663017	   -305.28107249	    -20.59930212	     -5.00847391	      2.35069487	      1.22151888	      0.00000000	      0.00000000	      0.00000000	      0.00000000	      0.00000000	      0.00000000	      0.00000000	      0.00000000	      0.00000000	      0.00000000	      0.00000000	      0.00000000	      0.00000000	      0.00000000	      0.00000000	      0.00000000	      0.00000000	      0.00000000	      0.00000000	      0.00000000	      0.00000000	      0.00000000	      0.00000000	      0.00000000	     11.52598370	   -231.20032261	     48.64444919	     -4.49989570	      0.50434850	      3.46721904	    -11.52598370	    231.20032261	    -48.64444919	     24.10103022	      0.04609568	     -5.49539464	      0.00000000	      0.00000000	      0.00000000	      0.00000000	      0.00000000	      0.00000000	      0.00000000	      0.00000000	      0.00000000	      0.00000000	      0.00000000	      0.00000000	      0.00000000	      0.00000000	    219.45112165	     46.29564307	      0.00000000	      0.00000000	     62.66095180	      0.00000000	    108.41429065	    219.50226727
